<svg xmlns="http://www.w3.org/2000/svg" viewBox="0 0 100 100" width="100" height="100">
  <defs>
    <!-- Gradient for the main background -->
    <linearGradient id="bgGradient" x1="0%" y1="0%" x2="100%" y2="100%">
      <stop offset="0%" style="stop-color:#1a1a2e"/>
      <stop offset="50%" style="stop-color:#16213e"/>
      <stop offset="100%" style="stop-color:#0f3460"/>
    </linearGradient>
    
    <!-- Gradient for the Y letter -->
    <linearGradient id="yGradient" x1="0%" y1="0%" x2="100%" y2="100%">
      <stop offset="0%" style="stop-color:#e94560"/>
      <stop offset="100%" style="stop-color:#ff6b6b"/>
    </linearGradient>
    
    <!-- Glow effect -->
    <filter id="glow" x="-50%" y="-50%" width="200%" height="200%">
      <feGaussianBlur stdDeviation="2" result="coloredBlur"/>
      <feMerge>
        <feMergeNode in="coloredBlur"/>
        <feMergeNode in="SourceGraphic"/>
      </feMerge>
    </filter>
    
    <!-- Subtle shadow -->
    <filter id="shadow" x="-20%" y="-20%" width="140%" height="140%">
      <feDropShadow dx="2" dy="2" stdDeviation="3" flood-color="#000" flood-opacity="0.3"/>
    </filter>
  </defs>
  
  <!-- Outer rounded square with cut corner -->
  <path d="M 12 8 
           L 80 8 
           Q 92 8 92 20 
           L 92 80 
           Q 92 92 80 92 
           L 20 92 
           Q 8 92 8 80 
           L 8 20 
           Q 8 8 20 8 
           Z" 
        fill="url(#bgGradient)" 
        filter="url(#shadow)"/>
  
  <!-- Decorative corner accent -->
  <path d="M 75 8 L 92 8 L 92 25 Z" fill="#e94560" opacity="0.8"/>
  
  <!-- Subtle grid pattern for texture -->
  <g opacity="0.05" stroke="#fff" stroke-width="0.5">
    <line x1="8" y1="30" x2="92" y2="30"/>
    <line x1="8" y1="50" x2="92" y2="50"/>
    <line x1="8" y1="70" x2="92" y2="70"/>
    <line x1="30" y1="8" x2="30" y2="92"/>
    <line x1="50" y1="8" x2="50" y2="92"/>
    <line x1="70" y1="8" x2="70" y2="92"/>
  </g>
  
  <!-- The Y letter - modern geometric style -->
  <g filter="url(#glow)">
    <!-- Left arm of Y -->
    <path d="M 25 22 
             L 35 22 
             L 50 45 
             L 50 52 
             L 42 52 
             L 25 30 
             Z" 
          fill="url(#yGradient)"/>
    
    <!-- Right arm of Y -->
    <path d="M 75 22 
             L 65 22 
             L 50 45 
             L 58 52 
             L 50 52 
             L 50 45
             L 75 30 
             Z" 
          fill="url(#yGradient)"/>
    
    <!-- Stem of Y -->
    <path d="M 42 52 
             L 58 52 
             L 58 78 
             L 42 78 
             Z" 
          fill="url(#yGradient)"/>
  </g>
  
  <!-- Highlight accent on Y -->
  <path d="M 25 22 L 35 22 L 32 26 L 25 26 Z" fill="#fff" opacity="0.4"/>
  <path d="M 65 22 L 75 22 L 75 26 L 68 26 Z" fill="#fff" opacity="0.4"/>
  
  <!-- Small decorative dots -->
  <circle cx="18" cy="82" r="2" fill="#e94560" opacity="0.6"/>
  <circle cx="82" cy="82" r="2" fill="#e94560" opacity="0.6"/>
  
  <!-- Subtle border -->
  <path d="M 12 8 
           L 80 8 
           Q 92 8 92 20 
           L 92 80 
           Q 92 92 80 92 
           L 20 92 
           Q 8 92 8 80 
           L 8 20 
           Q 8 8 20 8 
           Z" 
        fill="none" 
        stroke="#e94560" 
        stroke-width="1" 
        opacity="0.3"/>
</svg>
